<svg width="1192.0400146484374px" height="260.03999023437495px" xmlns="http://www.w3.org/2000/svg" viewBox="-346.0200073242187 -55.01999511718748 1192.0400146484374 260.03999023437495" style="background: none;" preserveAspectRatio="xMidYMid"><defs><linearGradient id="editing-shiny-gradient" x1="0.04322727117869957" x2="0.9567727288213004" y1="0.2966316784620999" y2="0.7033683215379001" gradientUnits="objectBoundingBox"><stop offset="0.0" stop-color="#ffb200"></stop><stop offset="0.5" stop-color="#e10057"></stop><stop offset="1.0" stop-color="#5A1A80"></stop></linearGradient><linearGradient id="editing-shiny-gradient2" x1="0" x2="0" y1="0" y2="1"><stop offset="0.2" stop-color="#fff" stop-opacity="0.8"></stop><stop offset="0.8" stop-color="#fff" stop-opacity="0"></stop></linearGradient><filter id="editing-shiny2" x="-100%" y="-100%" width="300%" height="300%"><feMorphology operator="erode" radius="2"></feMorphology></filter><filter id="editing-shiny" x="-100%" y="-100%" width="300%" height="300%"><feFlood flood-color="#fff" result="flood"></feFlood><feConvolveMatrix in="SourceGraphic" result="conv" order="8,8" divisor="1" kernelMatrix="0 0 0 0 0 0 0 0 0 0 0 1 1 0 0 0 0 0 0 1 1 0 0 0 0 0 1 0 0 1 0 0 0 0 1 0 0 1 0 0 0 1 0 0 0 0 1 0 0 1 1 0 0 1 1 0 0 0 0 1 1 0 0 0 "></feConvolveMatrix><feOffset dx="0" dy="4" in="conv" result="offset"></feOffset><feComposite operator="in" in="flood" in2="offset" result="comp"></feComposite><feGaussianBlur in="offset" stdDeviation="3" result="shadow"></feGaussianBlur><feColorMatrix in="shadow" type="matrix" values="0.7 0 0 0 0  0 0.7 0 0 0  0 0 0.7 0 0  0 0 0 0.3 0" result="dark-shadow"></feColorMatrix><feOffset dx="0" dy="4" in="dark-shadow" result="offset-shadow"></feOffset><feOffset dx="0" dy="2" in="conv" result="offset-2"></feOffset><feComposite operator="out" in="offset" in2="offset-2" result="edge-diff"></feComposite><feGaussianBlur in="edge-diff" stdDeviation="1" result="edge-blur"></feGaussianBlur><feColorMatrix in="edge-blur" result="edge-shadow" type="matrix" values="0 0 0 0 0  0 0 0 0 0  0 0 0 0 0  0 0 0 0.5 0"></feColorMatrix><feComposite operator="in" in="edge-shadow" in2="offset" result="edge-shadow-in"></feComposite><feOffset dx="0" dy="1" in="edge-shadow-in" result="edge-shadow-final"></feOffset><feMerge result="out"><feMergeNode in="offset-shadow"></feMergeNode><feMergeNode in="comp"></feMergeNode><feMergeNode in="edge-shadow-final"></feMergeNode><feMergeNode in="SourceGraphic"></feMergeNode></feMerge></filter></defs><g filter="url(#editing-shiny)"><g transform="translate(-175.16616517305374, 130.50000190734863)"><path d="M61.05-69.30L61.05-69.30L61.05-69.30Q63.30-73.80 63.30-78L63.30-78L63.30-78Q63.30-82.20 62.85-84.52L62.85-84.52L62.85-84.52Q62.40-86.85 61.35-88.65L61.35-88.65L61.35-88.65Q59.10-92.55 54.60-92.55L54.60-92.55L54.60-92.55Q49.05-92.55 44.55-88.50L44.55-88.50L44.55-88.50Q39.75-84.30 39.75-77.70L39.75-77.70L39.75-77.70Q39.75-73.50 42.67-70.27L42.67-70.27L42.67-70.27Q45.60-67.05 50.10-64.05L50.10-64.05L50.10-64.05Q54.60-61.05 59.70-58.05L59.70-58.05L59.70-58.05Q64.80-55.05 69.30-51.45L69.30-51.45L69.30-51.45Q79.65-43.20 79.65-32.10L79.65-32.10L79.65-32.10Q79.65-24.60 75.67-18.22L75.67-18.22L75.67-18.22Q71.70-11.85 65.10-7.20L65.10-7.20L65.10-7.20Q50.70 3 31.65 3L31.65 3L31.65 3Q16.20 3 8.25-2.02L8.25-2.02L8.25-2.02Q0.30-7.05 0.30-14.70L0.30-14.70L0.30-14.70Q0.30-28.35 10.95-31.80L10.95-31.80L10.95-31.80Q13.95-32.85 18.52-32.85L18.52-32.85L18.52-32.85Q23.10-32.85 28.35-30.90L28.35-30.90L28.35-30.90Q25.95-24.75 25.95-19.20L25.95-19.20L25.95-19.20Q25.95-7.20 34.50-7.20L34.50-7.20L34.50-7.20Q40.05-7.20 44.63-11.25L44.63-11.25L44.63-11.25Q49.20-15.30 49.20-19.88L49.20-19.88L49.20-19.88Q49.20-24.45 46.27-27.75L46.27-27.75L46.27-27.75Q43.35-31.05 39-33.67L39-33.67L39-33.67Q34.65-36.30 29.63-38.85L29.63-38.85L29.63-38.85Q24.60-41.40 20.25-45L20.25-45L20.25-45Q10.05-53.25 10.05-66.45L10.05-66.45L10.05-66.45Q10.05-75 14.25-81.67L14.25-81.67L14.25-81.67Q18.45-88.35 25.20-92.85L25.20-92.85L25.20-92.85Q38.70-102 55.27-102L55.27-102L55.27-102Q71.85-102 79.88-97.05L79.88-97.05L79.88-97.05Q87.90-92.10 87.90-83.70L87.90-83.70L87.90-83.70Q87.90-76.35 82.20-71.70L82.20-71.70L82.20-71.70Q77.25-67.80 71.25-67.80L71.25-67.80L71.25-67.80Q65.25-67.80 61.05-69.30ZM166.50-16.65L166.50-16.65L166.50-16.65Q166.50-10.05 173.25-8.10L173.25-8.10L173.25-8.10Q171.60-2.55 165.15 0.45L165.15 0.45L165.15 0.45Q159.75 3 153.82 3L153.82 3L153.82 3Q147.90 3 144.82 1.43L144.82 1.43L144.82 1.43Q141.75-0.15 140.10-2.70L140.10-2.70L140.10-2.70Q137.40-6.60 137.40-13.95L137.40-13.95L137.40-13.95Q137.40-18.30 139.80-30.30L139.80-30.30L141.90-41.70L141.90-41.70Q144.45-54.75 144.45-59.55L144.45-59.55L144.45-59.55Q144.45-67.95 139.80-67.95L139.80-67.95L139.80-67.95Q133.95-67.95 130.20-59.40L130.20-59.40L130.20-59.40Q128.70-56.10 127.65-51.15L127.65-51.15L117.45 0L87.30 3L108.45-105L138.60-108L137.40-102L137.40-102Q133.20-78.90 129.60-71.10L129.60-71.10L129.60-71.10Q138-79.50 153.45-79.50L153.45-79.50L153.45-79.50Q169.80-79.50 172.80-68.70L172.80-68.70L172.80-68.70Q173.85-65.25 173.85-62.25L173.85-62.25L173.85-62.25Q173.85-59.25 173.63-56.92L173.63-56.92L173.63-56.92Q173.40-54.60 172.65-50.40L172.65-50.40L170.70-39.60L167.25-22.65L167.25-22.65Q166.50-19.20 166.50-16.65ZM191.92-4.50L191.92-4.50L191.92-4.50Q188.40-8.40 186.82-14.55L186.82-14.55L186.82-14.55Q185.25-20.70 185.25-30.75L185.25-30.75L185.25-30.75Q185.25-40.80 188.70-49.95L188.70-49.95L188.70-49.95Q192.15-59.10 198.45-65.70L198.45-65.70L198.45-65.70Q211.35-79.50 232.65-79.50L232.65-79.50L232.65-79.50Q240.30-79.50 245.85-76.95L245.85-76.95L271.50-79.50L260.40-21L260.40-21Q259.95-19.20 259.95-15.90L259.95-15.90L259.95-15.90Q259.95-12.60 261.98-10.50L261.98-10.50L261.98-10.50Q264-8.40 267-8.10L267-8.10L267-8.10Q265.50-3 260.02 0L260.02 0L260.02 0Q254.55 3 248.40 3L248.40 3L248.40 3Q242.25 3 238.13 0.67L238.13 0.67L238.13 0.67Q234-1.65 232.80-5.55L232.80-5.55L232.80-5.55Q230.40-1.80 225.30 0.60L225.30 0.60L225.30 0.60Q220.20 3 213.38 3L213.38 3L213.38 3Q206.55 3 201 1.20L201 1.20L201 1.20Q195.45-0.60 191.92-4.50ZM223.57-65.40L223.57-65.40L223.57-65.40Q221.85-62.70 220.35-58.13L220.35-58.13L220.35-58.13Q218.85-53.55 216.38-41.32L216.38-41.32L216.38-41.32Q213.90-29.10 213.90-20.40L213.90-20.40L213.90-20.40Q213.90-11.70 215.25-9.15L215.25-9.15L215.25-9.15Q216.60-6.60 219-6.60L219-6.60L219-6.60Q223.80-6.60 227.32-11.17L227.32-11.17L227.32-11.17Q230.85-15.75 232.20-23.85L232.20-23.85L240.15-67.80L240.15-67.80Q237-70.50 233.32-70.50L233.32-70.50L233.32-70.50Q229.65-70.50 227.47-69.30L227.47-69.30L227.47-69.30Q225.30-68.10 223.57-65.40ZM318.30-71.10L318.30-71.10L318.30-71.10Q326.40-79.50 343.50-79.50L343.50-79.50L343.50-79.50Q352.95-79.50 358.13-74.47L358.13-74.47L358.13-74.47Q363.30-69.45 363.30-60.22L363.30-60.22L363.30-60.22Q363.30-51 358.13-44.48L358.13-44.48L358.13-44.48Q352.95-37.95 343.35-35.25L343.35-35.25L343.35-35.25Q344.10-32.25 345.15-29.10L345.15-29.10L347.25-23.10L347.25-23.10Q350.10-15.45 352.35-12.75L352.35-12.75L352.35-12.75Q354.60-10.05 357.60-9.15L357.60-9.15L357.60-9.15Q355.95-3 349.95 0.30L349.95 0.30L349.95 0.30Q345.15 3 338.55 3L338.55 3L338.55 3Q319.20 3 316.65-26.85L316.65-26.85L316.65-26.85Q316.20-31.05 316.20-35.25L316.20-35.25L316.20-35.25Q323.70-37.35 328.95-44.40L328.95-44.40L328.95-44.40Q334.20-51.45 334.20-59.70L334.20-59.70L334.20-59.70Q334.20-67.95 328.35-67.95L328.35-67.95L328.35-67.95Q324.15-67.95 320.85-63.30L320.85-63.30L320.85-63.30Q317.55-58.65 316.05-50.70L316.05-50.70L306.15 0L275.85 3L296.85-105L327-108L323.55-90.15L323.55-90.15Q321.30-77.55 318.30-71.10ZM430.95-25.35L430.95-25.35L430.95-25.35Q434.70-22.80 434.70-17.18L434.70-17.18L434.70-17.18Q434.70-11.55 431.85-7.95L431.85-7.95L431.85-7.95Q429-4.35 424.35-1.95L424.35-1.95L424.35-1.95Q414.75 3 404.40 3L404.40 3L404.40 3Q394.05 3 387.97 0.75L387.97 0.75L387.97 0.75Q381.90-1.50 377.85-5.70L377.85-5.70L377.85-5.70Q369.90-13.65 369.90-28.20L369.90-28.20L369.90-28.20Q369.90-50.85 382.20-64.65L382.20-64.65L382.20-64.65Q395.40-79.50 418.35-79.50L418.35-79.50L418.35-79.50Q432.60-79.50 439.65-73.50L439.65-73.50L439.65-73.50Q444.90-69 444.90-61.65L444.90-61.65L444.90-61.65Q444.90-35.25 399.30-35.25L399.30-35.25L399.30-35.25Q398.70-31.35 398.70-28.05L398.70-28.05L398.70-28.05Q398.70-21.15 401.77-18.52L401.77-18.52L401.77-18.52Q404.85-15.90 410.55-15.90L410.55-15.90L410.55-15.90Q416.25-15.90 422.32-18.52L422.32-18.52L422.32-18.52Q428.40-21.15 430.95-25.35ZM400.35-41.70L400.35-41.70L400.35-41.70Q411-41.70 417.15-48.30L417.15-48.30L417.15-48.30Q423.30-54.60 423.30-64.65L423.30-64.65L423.30-64.65Q423.30-68.10 422.02-69.97L422.02-69.97L422.02-69.97Q420.75-71.85 418.20-71.85L418.20-71.85L418.20-71.85Q415.65-71.85 413.47-70.88L413.47-70.88L413.47-70.88Q411.30-69.90 409.05-66.60L409.05-66.60L409.05-66.60Q403.50-59.10 400.35-41.70ZM543.60-2.55L543.60-2.55L543.60-2.55Q530.25 3 513.90 3L513.90 3L513.90 3Q499.50 3 489.75-4.50L489.75-4.50L489.75-4.50Q479.10-12.45 479.10-26.55L479.10-26.55L479.10-26.55Q479.10-47.40 504.15-53.25L504.15-53.25L504.15-53.25Q499.95-65.10 499.95-73.35L499.95-73.35L499.95-73.35Q499.95-81.60 503.10-86.92L503.10-86.92L503.10-86.92Q506.25-92.25 511.65-95.70L511.65-95.70L511.65-95.70Q521.85-102 538.95-102L538.95-102L538.95-102Q550.80-102 558.30-97.50L558.30-97.50L558.30-97.50Q565.95-92.85 565.95-85.95L565.95-85.95L565.95-85.95Q565.95-78.15 560.55-73.80L560.55-73.80L560.55-73.80Q555.75-69.75 547.80-69.75L547.80-69.75L547.80-69.75Q543.15-69.75 541.65-70.20L541.65-70.20L541.65-70.20Q542.25-73.50 542.25-78.90L542.25-78.90L542.25-78.90Q542.25-84.30 540.45-87.97L540.45-87.97L540.45-87.97Q538.65-91.65 535.65-91.65L535.65-91.65L535.65-91.65Q530.10-91.65 528-86.77L528-86.77L528-86.77Q525.90-81.90 525.90-74.77L525.90-74.77L525.90-74.77Q525.90-67.65 527.32-61.13L527.32-61.13L527.32-61.13Q528.75-54.60 531.45-48.30L531.45-48.30L531.45-48.30Q537.15-35.25 546.30-26.40L546.30-26.40L546.30-26.40Q548.70-32.25 549-41.40L549-41.40L549-41.40Q549-49.50 543.45-54.30L543.45-54.30L543.45-54.30Q545.55-56.25 549.60-57.45L549.60-57.45L549.60-57.45Q553.65-58.65 557.25-58.65L557.25-58.65L557.25-58.65Q565.20-58.65 568.95-53.85L568.95-53.85L568.95-53.85Q572.70-49.05 572.70-41.40L572.70-41.40L572.70-41.40Q572.70-27.75 562.95-16.50L562.95-16.50L562.95-16.50Q566.70-15.45 570.15-15.45L570.15-15.45L570.15-15.45Q577.65-15.45 580.05-17.40L580.05-17.40L580.05-17.40Q581.25-14.55 581.25-10.80L581.25-10.80L581.25-10.80Q581.25-3.30 576.38-0.15L576.38-0.15L576.38-0.15Q571.50 3 562.80 3L562.80 3L562.80 3Q554.10 3 543.60-2.55ZM509.25-41.85L509.25-41.85L509.25-41.85Q505.95-38.55 505.95-32.70L505.95-32.70L505.95-32.70Q505.95-26.85 507.30-23.18L507.30-23.18L507.30-23.18Q508.65-19.50 510.75-16.80L510.75-16.80L510.75-16.80Q515.55-10.95 521.85-10.95L521.85-10.95L521.85-10.95Q527.55-10.95 530.85-12.15L530.85-12.15L530.85-12.15Q518.25-24 509.25-41.85ZM633.75-73.05L633.75-73.05L633.75-73.05Q628.65-76.95 628.65-85.27L628.65-85.27L628.65-85.27Q628.65-93.60 634.12-97.95L634.12-97.95L634.12-97.95Q639.60-102.30 649.05-102.30L649.05-102.30L649.05-102.30Q655.05-102.30 669.30-100.20L669.30-100.20L679.50-98.70L679.50-98.70Q684.60-98.10 689.92-98.10L689.92-98.10L689.92-98.10Q695.25-98.10 698.85-100.35L698.85-100.35L698.85-100.35Q704.25-95.55 704.25-88.65L704.25-88.65L704.25-88.65Q704.25-81.75 698.10-76.80L698.10-76.80L698.10-76.80Q691.80-71.55 683.70-71.55L683.70-71.55L683.70-71.55Q679.80-71.55 673.50-72.60L673.50-72.60L673.50-72.60Q666.15-49.50 666.15-33.45L666.15-33.45L666.15-33.45Q666.15-17.40 674.25-9L674.25-9L674.25-9Q670.50-2.25 664.95 0.38L664.95 0.38L664.95 0.38Q659.40 3 651.07 3L651.07 3L651.07 3Q642.75 3 637.57-1.57L637.57-1.57L637.57-1.57Q632.40-6.15 632.40-15.60L632.40-15.60L632.40-15.60Q632.40-26.55 638.40-44.55L638.40-44.55L638.40-44.55Q644.40-62.40 653.40-76.05L653.40-76.05L653.40-76.05Q649.05-76.50 644.55-76.50L644.55-76.50L644.55-76.50Q635.25-76.50 633.75-73.05ZM730.50 0L697.80 0L716.85-99L749.85-99L730.50 0ZM789-8.25L789-8.25L789-8.25Q784.35 3 769.50 3L769.50 3L769.50 3Q762 3 757.20-2.25L757.20-2.25L757.20-2.25Q753.30-6.60 753.30-11.55L753.30-11.55L753.30-11.55Q753.30-22.80 758.55-47.40L758.55-47.40L769.50-105L799.95-108L785.40-32.10L785.40-32.10Q782.85-21 782.85-17.10L782.85-17.10L782.85-17.10Q782.85-8.55 789-8.25ZM804.15-15L804.15-15L804.15-15Q804.15-19.05 806.25-29.25L806.25-29.25L814.20-69.75L805.35-69.75L805.95-74.25L805.95-74.25Q823.95-79.65 841.35-92.85L841.35-92.85L848.55-92.85L844.95-76.50L856.65-76.50L855.30-69.75L843.75-69.75L836.10-29.25L836.10-29.25Q834.15-19.95 834.15-16.80L834.15-16.80L834.15-16.80Q834.15-9.60 840.45-8.10L840.45-8.10L840.45-8.10Q838.95-3 833.55 0L833.55 0L833.55 0Q828.15 3 820.50 3L820.50 3L820.50 3Q812.85 3 808.50-1.80L808.50-1.80L808.50-1.80Q804.15-6.60 804.15-15Z" fill="url(#editing-shiny-gradient)"></path></g></g><g filter="url(#editing-shiny2)"><g transform="translate(-175.1582916378975, 130.49999809265137)"><path d="M61.05-69.30L61.05-69.30L61.05-69.30Q63.30-73.80 63.30-78L63.30-78L63.30-78Q63.30-82.20 62.85-84.52L62.85-84.52L62.85-84.52Q62.40-86.85 61.35-88.65L61.35-88.65L61.35-88.65Q59.10-92.55 54.60-92.55L54.60-92.55L54.60-92.55Q49.05-92.55 44.55-88.50L44.55-88.50L44.55-88.50Q39.75-84.30 39.75-77.70L39.75-77.70L39.75-77.70Q39.75-73.50 42.67-70.27L42.67-70.27L42.67-70.27Q45.60-67.05 50.10-64.05L50.10-64.05L50.10-64.05Q54.60-61.05 59.70-58.05L59.70-58.05L59.70-58.05Q64.80-55.05 69.30-51.45L69.30-51.45L69.30-51.45Q79.65-43.20 79.65-32.10L79.65-32.10L79.65-32.10Q79.65-24.60 75.67-18.22L75.67-18.22L75.67-18.22Q71.70-11.85 65.10-7.20L65.10-7.20L65.10-7.20Q50.70 3 31.65 3L31.65 3L31.65 3Q16.20 3 8.25-2.02L8.25-2.02L8.25-2.02Q0.30-7.05 0.30-14.70L0.30-14.70L0.30-14.70Q0.30-28.35 10.95-31.80L10.95-31.80L10.95-31.80Q13.95-32.85 18.52-32.85L18.52-32.85L18.52-32.85Q23.10-32.85 28.35-30.90L28.35-30.90L28.35-30.90Q25.95-24.75 25.95-19.20L25.95-19.20L25.95-19.20Q25.95-7.20 34.50-7.20L34.50-7.20L34.50-7.20Q40.05-7.20 44.63-11.25L44.63-11.25L44.63-11.25Q49.20-15.30 49.20-19.88L49.20-19.88L49.20-19.88Q49.20-24.45 46.27-27.75L46.27-27.75L46.27-27.75Q43.35-31.05 39-33.67L39-33.67L39-33.67Q34.65-36.30 29.63-38.85L29.63-38.85L29.63-38.85Q24.60-41.40 20.25-45L20.25-45L20.25-45Q10.05-53.25 10.05-66.45L10.05-66.45L10.05-66.45Q10.05-75 14.25-81.67L14.25-81.67L14.25-81.67Q18.45-88.35 25.20-92.85L25.20-92.85L25.20-92.85Q38.70-102 55.27-102L55.27-102L55.27-102Q71.85-102 79.88-97.05L79.88-97.05L79.88-97.05Q87.90-92.10 87.90-83.70L87.90-83.70L87.90-83.70Q87.90-76.35 82.20-71.70L82.20-71.70L82.20-71.70Q77.25-67.80 71.25-67.80L71.25-67.80L71.25-67.80Q65.25-67.80 61.05-69.30ZM166.50-16.65L166.50-16.65L166.50-16.65Q166.50-10.05 173.25-8.10L173.25-8.10L173.25-8.10Q171.60-2.55 165.15 0.45L165.15 0.45L165.15 0.45Q159.75 3 153.82 3L153.82 3L153.82 3Q147.90 3 144.82 1.43L144.82 1.43L144.82 1.43Q141.75-0.15 140.10-2.70L140.10-2.70L140.10-2.70Q137.40-6.60 137.40-13.95L137.40-13.95L137.40-13.95Q137.40-18.30 139.80-30.30L139.80-30.30L141.90-41.70L141.90-41.70Q144.45-54.75 144.45-59.55L144.45-59.55L144.45-59.55Q144.45-67.95 139.80-67.95L139.80-67.95L139.80-67.95Q133.95-67.95 130.20-59.40L130.20-59.40L130.20-59.40Q128.70-56.10 127.65-51.15L127.65-51.15L117.45 0L87.30 3L108.45-105L138.60-108L137.40-102L137.40-102Q133.20-78.90 129.60-71.10L129.60-71.10L129.60-71.10Q138-79.50 153.45-79.50L153.45-79.50L153.45-79.50Q169.80-79.50 172.80-68.70L172.80-68.70L172.80-68.70Q173.85-65.25 173.85-62.25L173.85-62.25L173.85-62.25Q173.85-59.25 173.63-56.92L173.63-56.92L173.63-56.92Q173.40-54.60 172.65-50.40L172.65-50.40L170.70-39.60L167.25-22.65L167.25-22.65Q166.50-19.20 166.50-16.65ZM191.92-4.50L191.92-4.50L191.92-4.50Q188.40-8.40 186.82-14.55L186.82-14.55L186.82-14.55Q185.25-20.70 185.25-30.75L185.25-30.75L185.25-30.75Q185.25-40.80 188.70-49.95L188.70-49.95L188.70-49.95Q192.15-59.10 198.45-65.70L198.45-65.70L198.45-65.70Q211.35-79.50 232.65-79.50L232.65-79.50L232.65-79.50Q240.30-79.50 245.85-76.95L245.85-76.95L271.50-79.50L260.40-21L260.40-21Q259.95-19.20 259.95-15.90L259.95-15.90L259.95-15.90Q259.95-12.60 261.98-10.50L261.98-10.50L261.98-10.50Q264-8.40 267-8.10L267-8.10L267-8.10Q265.50-3 260.02 0L260.02 0L260.02 0Q254.55 3 248.40 3L248.40 3L248.40 3Q242.25 3 238.13 0.67L238.13 0.67L238.13 0.67Q234-1.65 232.80-5.55L232.80-5.55L232.80-5.55Q230.40-1.80 225.30 0.60L225.30 0.60L225.30 0.60Q220.20 3 213.38 3L213.38 3L213.38 3Q206.55 3 201 1.20L201 1.20L201 1.20Q195.45-0.60 191.92-4.50ZM223.57-65.40L223.57-65.40L223.57-65.40Q221.85-62.70 220.35-58.13L220.35-58.13L220.35-58.13Q218.85-53.55 216.38-41.32L216.38-41.32L216.38-41.32Q213.90-29.10 213.90-20.40L213.90-20.40L213.90-20.40Q213.90-11.70 215.25-9.15L215.25-9.15L215.25-9.15Q216.60-6.60 219-6.60L219-6.60L219-6.60Q223.80-6.60 227.32-11.17L227.32-11.17L227.32-11.17Q230.85-15.75 232.20-23.85L232.20-23.85L240.15-67.80L240.15-67.80Q237-70.50 233.32-70.50L233.32-70.50L233.32-70.50Q229.65-70.50 227.47-69.30L227.47-69.30L227.47-69.30Q225.30-68.10 223.57-65.40ZM318.30-71.10L318.30-71.10L318.30-71.10Q326.40-79.50 343.50-79.50L343.50-79.50L343.50-79.50Q352.95-79.50 358.13-74.47L358.13-74.47L358.13-74.47Q363.30-69.45 363.30-60.22L363.30-60.22L363.30-60.22Q363.30-51 358.13-44.48L358.13-44.48L358.13-44.48Q352.95-37.95 343.35-35.25L343.35-35.25L343.35-35.25Q344.10-32.25 345.15-29.10L345.15-29.10L347.25-23.10L347.25-23.10Q350.10-15.45 352.35-12.75L352.35-12.75L352.35-12.75Q354.60-10.05 357.60-9.15L357.60-9.15L357.60-9.15Q355.95-3 349.95 0.30L349.95 0.30L349.95 0.30Q345.15 3 338.55 3L338.55 3L338.55 3Q319.20 3 316.65-26.85L316.65-26.85L316.65-26.85Q316.20-31.05 316.20-35.25L316.20-35.25L316.20-35.25Q323.70-37.35 328.95-44.40L328.95-44.40L328.95-44.40Q334.20-51.45 334.20-59.70L334.20-59.70L334.20-59.70Q334.20-67.95 328.35-67.95L328.35-67.95L328.35-67.95Q324.15-67.95 320.85-63.30L320.85-63.30L320.85-63.30Q317.55-58.65 316.05-50.70L316.05-50.70L306.15 0L275.85 3L296.85-105L327-108L323.55-90.15L323.55-90.15Q321.30-77.55 318.30-71.10ZM430.95-25.35L430.95-25.35L430.95-25.35Q434.70-22.80 434.70-17.18L434.70-17.18L434.70-17.18Q434.70-11.55 431.85-7.95L431.85-7.95L431.85-7.95Q429-4.35 424.35-1.95L424.35-1.95L424.35-1.95Q414.75 3 404.40 3L404.40 3L404.40 3Q394.05 3 387.97 0.75L387.97 0.75L387.97 0.75Q381.90-1.50 377.85-5.70L377.85-5.70L377.85-5.70Q369.90-13.65 369.90-28.20L369.90-28.20L369.90-28.20Q369.90-50.85 382.20-64.65L382.20-64.65L382.20-64.65Q395.40-79.50 418.35-79.50L418.35-79.50L418.35-79.50Q432.60-79.50 439.65-73.50L439.65-73.50L439.65-73.50Q444.90-69 444.90-61.65L444.90-61.65L444.90-61.65Q444.90-35.25 399.30-35.25L399.30-35.25L399.30-35.25Q398.70-31.35 398.70-28.05L398.70-28.05L398.70-28.05Q398.70-21.15 401.77-18.52L401.77-18.52L401.77-18.52Q404.85-15.90 410.55-15.90L410.55-15.90L410.55-15.90Q416.25-15.90 422.32-18.52L422.32-18.52L422.32-18.52Q428.40-21.15 430.95-25.35ZM400.35-41.70L400.35-41.70L400.35-41.70Q411-41.70 417.15-48.30L417.15-48.30L417.15-48.30Q423.30-54.60 423.30-64.65L423.30-64.65L423.30-64.65Q423.30-68.10 422.02-69.97L422.02-69.97L422.02-69.97Q420.75-71.85 418.20-71.85L418.20-71.85L418.20-71.85Q415.65-71.85 413.47-70.88L413.47-70.88L413.47-70.88Q411.30-69.90 409.05-66.60L409.05-66.60L409.05-66.60Q403.50-59.10 400.35-41.70ZM543.60-2.55L543.60-2.55L543.60-2.55Q530.25 3 513.90 3L513.90 3L513.90 3Q499.50 3 489.75-4.50L489.75-4.50L489.75-4.50Q479.10-12.45 479.10-26.55L479.10-26.55L479.10-26.55Q479.10-47.40 504.15-53.25L504.15-53.25L504.15-53.25Q499.95-65.10 499.95-73.35L499.95-73.35L499.95-73.35Q499.95-81.60 503.10-86.92L503.10-86.92L503.10-86.92Q506.25-92.25 511.65-95.70L511.65-95.70L511.65-95.70Q521.85-102 538.95-102L538.95-102L538.95-102Q550.80-102 558.30-97.50L558.30-97.50L558.30-97.50Q565.95-92.85 565.95-85.95L565.95-85.95L565.95-85.95Q565.95-78.15 560.55-73.80L560.55-73.80L560.55-73.80Q555.75-69.75 547.80-69.75L547.80-69.75L547.80-69.75Q543.15-69.75 541.65-70.20L541.65-70.20L541.65-70.20Q542.25-73.50 542.25-78.90L542.25-78.90L542.25-78.90Q542.25-84.30 540.45-87.97L540.45-87.97L540.45-87.97Q538.65-91.65 535.65-91.65L535.65-91.65L535.65-91.65Q530.10-91.65 528-86.77L528-86.77L528-86.77Q525.90-81.90 525.90-74.77L525.90-74.77L525.90-74.77Q525.90-67.65 527.32-61.13L527.32-61.13L527.32-61.13Q528.75-54.60 531.45-48.30L531.45-48.30L531.45-48.30Q537.15-35.25 546.30-26.40L546.30-26.40L546.30-26.40Q548.70-32.25 549-41.40L549-41.40L549-41.40Q549-49.50 543.45-54.30L543.45-54.30L543.45-54.30Q545.55-56.25 549.60-57.45L549.60-57.45L549.60-57.45Q553.65-58.65 557.25-58.65L557.25-58.65L557.25-58.65Q565.20-58.65 568.95-53.85L568.95-53.85L568.95-53.85Q572.70-49.05 572.70-41.40L572.70-41.40L572.70-41.40Q572.70-27.75 562.95-16.50L562.95-16.50L562.95-16.50Q566.70-15.45 570.15-15.45L570.15-15.45L570.15-15.45Q577.65-15.45 580.05-17.40L580.05-17.40L580.05-17.40Q581.25-14.55 581.25-10.80L581.25-10.80L581.25-10.80Q581.25-3.30 576.38-0.15L576.38-0.15L576.38-0.15Q571.50 3 562.80 3L562.80 3L562.80 3Q554.10 3 543.60-2.55ZM509.25-41.85L509.25-41.85L509.25-41.85Q505.95-38.55 505.95-32.70L505.95-32.70L505.95-32.70Q505.95-26.85 507.30-23.18L507.30-23.18L507.30-23.18Q508.65-19.50 510.75-16.80L510.75-16.80L510.75-16.80Q515.55-10.95 521.85-10.95L521.85-10.95L521.85-10.95Q527.55-10.95 530.85-12.15L530.85-12.15L530.85-12.15Q518.25-24 509.25-41.85ZM633.75-73.05L633.75-73.05L633.75-73.05Q628.65-76.95 628.65-85.27L628.65-85.27L628.65-85.27Q628.65-93.60 634.12-97.95L634.12-97.95L634.12-97.95Q639.60-102.30 649.05-102.30L649.05-102.30L649.05-102.30Q655.05-102.30 669.30-100.20L669.30-100.20L679.50-98.70L679.50-98.70Q684.60-98.10 689.92-98.10L689.92-98.10L689.92-98.10Q695.25-98.10 698.85-100.35L698.85-100.35L698.85-100.35Q704.25-95.55 704.25-88.65L704.25-88.65L704.25-88.65Q704.25-81.75 698.10-76.80L698.10-76.80L698.10-76.80Q691.80-71.55 683.70-71.55L683.70-71.55L683.70-71.55Q679.80-71.55 673.50-72.60L673.50-72.60L673.50-72.60Q666.15-49.50 666.15-33.45L666.15-33.45L666.15-33.45Q666.15-17.40 674.25-9L674.25-9L674.25-9Q670.50-2.25 664.95 0.38L664.95 0.38L664.95 0.38Q659.40 3 651.07 3L651.07 3L651.07 3Q642.75 3 637.57-1.57L637.57-1.57L637.57-1.57Q632.40-6.15 632.40-15.60L632.40-15.60L632.40-15.60Q632.40-26.55 638.40-44.55L638.40-44.55L638.40-44.55Q644.40-62.40 653.40-76.05L653.40-76.05L653.40-76.05Q649.05-76.50 644.55-76.50L644.55-76.50L644.55-76.50Q635.25-76.50 633.75-73.05ZM730.50 0L697.80 0L716.85-99L749.85-99L730.50 0ZM789-8.25L789-8.25L789-8.25Q784.35 3 769.50 3L769.50 3L769.50 3Q762 3 757.20-2.25L757.20-2.25L757.20-2.25Q753.30-6.60 753.30-11.55L753.30-11.55L753.30-11.55Q753.30-22.80 758.55-47.40L758.55-47.40L769.50-105L799.95-108L785.40-32.10L785.40-32.10Q782.85-21 782.85-17.10L782.85-17.10L782.85-17.10Q782.85-8.55 789-8.25ZM804.15-15L804.15-15L804.15-15Q804.15-19.05 806.25-29.25L806.25-29.25L814.20-69.75L805.35-69.75L805.95-74.25L805.95-74.25Q823.95-79.65 841.35-92.85L841.35-92.85L848.55-92.85L844.95-76.50L856.65-76.50L855.30-69.75L843.75-69.75L836.10-29.25L836.10-29.25Q834.15-19.95 834.15-16.80L834.15-16.80L834.15-16.80Q834.15-9.60 840.45-8.10L840.45-8.10L840.45-8.10Q838.95-3 833.55 0L833.55 0L833.55 0Q828.15 3 820.50 3L820.50 3L820.50 3Q812.85 3 808.50-1.80L808.50-1.80L808.50-1.80Q804.15-6.60 804.15-15Z" fill="url(#editing-shiny-gradient2)"></path></g></g><style>text {
  font-size: 64px;
  font-family: Arial Black;
  dominant-baseline: central;
  text-anchor: middle;
}</style></svg>